PathFileType	4	(X/Y/Z)	/Users/niels/Desktop/University/Third Semester/Perception and Action/Exam/Gymnastics Motion Tracking/Code for Gym Tracking/Analyzed Data/Webcam_Backflip/id5_5_trajectory_Sports2D/id5_5_trajectory_Sports2D_px_person00.trc
DataRate	CameraRate	NumFrames	NumMarkers	Units	OrigDataRate	OrigDataStartFrame	OrigNumFrames
29.81132075471698	29.81132075471698	9	22	m	29.81132075471698	0	159
Frame#	Time	Hip			RHip			RKnee			RAnkle			RBigToe			RSmallToe			RHeel			LHip			LKnee			LAnkle			LBigToe			LSmallToe			LHeel			Neck			Head			Nose			RShoulder			RElbow			RWrist			LShoulder			LElbow			LWrist		
		X1	Y1	Z1	X2	Y2	Z2	X3	Y3	Z3	X4	Y4	Z4	X5	Y5	Z5	X6	Y6	Z6	X7	Y7	Z7	X8	Y8	Z8	X9	Y9	Z9	X10	Y10	Z10	X11	Y11	Z11	X12	Y12	Z12	X13	Y13	Z13	X14	Y14	Z14	X15	Y15	Z15	X16	Y16	Z16	X17	Y17	Z17	X18	Y18	Z18	X19	Y19	Z19	X20	Y20	Z20	X21	Y21	Z21	X22	Y22	Z22
0	0.0	0.9764569666185422	-0.6058600282182064	0.0	0.9736645356927685	-0.6058583852326428	0.0	0.997454783021435	-0.6994199054716356	0.0	0.9597074839565203	-0.8000010701740197	0.0	0.9946396204690627	-0.8237439135762935	0.0	0.9834685639606814	-0.8237424494632468	0.0	0.9513285993553068	-0.8139724925054532	0.0	0.9722743987822158	-0.6058577370281053	0.0	0.9918718757216907	-0.7008166437496831	0.0	0.9611051800294836	-0.7972078583356953	0.0	0.9988466091357444	-0.815377496602535	0.0	0.9946482273869175	-0.8111770038778569	0.0	0.947136618121974	-0.8097791841583483	0.0	0.9946253017209018	-0.4563660579774208	0.0	1.0197494945096883	-0.39350118428917885	0.0	1.0295430573229787	-0.4256276528143485	0.0	0.984841186621604	-0.4731481070783555	0.0	0.9597448481500858	-0.537488636333058	0.0	0.9514509002450992	-0.5990451461906665	0.0	0.9876366562491241	-0.47453826755900735	0.0	0.9736800356432332	-0.5416510317575248	0.0	0.9863405374476139	-0.5906155124211097	0.0
1	0.03354430379746835	0.9743401661097306	-0.5926430857483465	0.0	0.9718856194394259	-0.5927566212216213	0.0	0.9935096437444533	-0.6907719151860936	0.0	0.9589091717364666	-0.7927534541709761	0.0	0.9950988146036392	-0.8149316949282075	0.0	0.9839333507492735	-0.816426010005904	0.0	0.9502635720179817	-0.8071223146879428	0.0	0.9719451171503134	-0.5923695416154708	0.0	0.9899263852740176	-0.6913024110707041	0.0	0.9603368256755301	-0.7885997917706536	0.0	0.9980076654717333	-0.8078494991846316	0.0	0.9944578939890689	-0.8040521636053942	0.0	0.946397337114622	-0.8021449352048746	0.0	0.9951233334603559	-0.4455112368172427	0.0	1.0215080267700518	-0.3827691531728076	0.0	1.0312574016766727	-0.41590560650160907	0.0	0.9861077934243844	-0.46040672187622855	0.0	0.9549655407788642	-0.5171173420099155	0.0	0.9385136653447256	-0.5742572199684162	0.0	0.9876918083474345	-0.4621236989336931	0.0	0.9655290415067779	-0.5222449756491492	0.0	0.9611102762492294	-0.5686285082746246	0.0
2	0.0670886075949367	0.9722429850139961	-0.5800233426839723	0.0	0.9700976651328054	-0.580188506688208	0.0	0.9896758935504663	-0.6820819617754711	0.0	0.9582875366009762	-0.785419327299025	0.0	0.9954788528773549	-0.8067303172810405	0.0	0.9842937615405821	-0.8093789119441497	0.0	0.9492806972386926	-0.8001829871540522	0.0	0.9715160003289102	-0.5795473389343458	0.0	0.9876802512725704	-0.6819146737659048	0.0	0.9597461165510178	-0.7800107928829274	0.0	0.9972337987146883	-0.800306361348673	0.0	0.9940620812385238	-0.7969834530780221	0.0	0.9458567239181848	-0.7945279729015318	0.0	0.9955873217091799	-0.43495472775777855	0.0	1.0234386327796576	-0.37224211737276125	0.0	1.033016767321408	-0.40636099698522704	0.0	0.9873866082351495	-0.44802969826467687	0.0	0.9505899693995674	-0.4970017748983153	0.0	0.9262210080838653	-0.5486635221260523	0.0	0.9877123335810613	-0.45010874421406094	0.0	0.9585099058524345	-0.5030087070190108	0.0	0.9392598630392912	-0.5458151371749592	0.0
3	0.10063291139240506	0.9702224068424691	-0.5685638198250058	0.0	0.9682815649144909	-0.5686708200181266	0.0	0.986130445796368	-0.673496760061249	0.0	0.9579316818277185	-0.7780648034888202	0.0	0.9957522306960687	-0.7995429401280512	0.0	0.9845004876469612	-0.80284603258127	0.0	0.9484452032817776	-0.793216867506633	0.0	0.9708961449191236	-0.5679503584700133	0.0	0.9850884186794022	-0.6728897328059374	0.0	0.9594717218069566	-0.7716448540925485	0.0	0.996521312852921	-0.7929415813455325	0.0	0.9933677671659253	-0.7901477157849169	0.0	0.9456458081013815	-0.787070303432313	0.0	0.9959575600130876	-0.42506434297295814	0.0	1.0256421330945213	-0.36226082657428427	0.0	1.0348108680104218	-0.39728906798773533	0.0	0.9886590849520347	-0.4364455118175687	0.0	0.9468356094130015	-0.4776647645213807	0.0	0.9150615820856135	-0.5222597144868212	0.0	0.9876443029279178	-0.43890098478932227	0.0	0.9533386056116705	-0.4843546872488814	0.0	0.9227899381555882	-0.522208615440633	0.0
4	0.1341772151898734	0.9683094570105631	-0.5587130022066771	0.0	0.966404115469193	-0.5586227671730464	0.0	0.9830913649813877	-0.6653445493902671	0.0	0.9578419430381162	-0.7709551836757045	0.0	0.9959833875882458	-0.7935136965435367	0.0	0.9846186137903663	-0.7970158590402473	0.0	0.9478042781940319	-0.7864586386798522	0.0	0.9699368305614319	-0.5579278550004464	0.0	0.9823814362452207	-0.664564788960587	0.0	0.9595389384574953	-0.7639188555349998	0.0	0.9958399774219057	-0.7861605142571364	0.0	0.9924422166334613	-0.7838632607790389	0.0	0.9457570763957999	-0.7800505793377887	0.0	0.9961839741401334	-0.41626525256480296	0.0	1.028114009201961	-0.35330468858990804	0.0	1.0365528298546334	-0.3891173213285273	0.0	0.9899113046366246	-0.42608807550167094	0.0	0.9436537063935219	-0.4598667230046326	0.0	0.905292045709368	-0.49596639833679546	0.0	0.9874077961594664	-0.42886664021897875	0.0	0.9501006873898734	-0.4669482049244999	0.0	0.9120321212409185	-0.4988668339661486	0.0
5	0.16772151898734178	0.9664354194105047	-0.5507479096863988	0.0	0.9644115935522536	-0.5503381296311849	0.0	0.9808499007800381	-0.6580058002975666	0.0	0.9579775376964231	-0.7644176225434133	0.0	0.9962793983914777	-0.7885621668900966	0.0	0.9847961834542519	-0.7919382445852365	0.0	0.9473784170277573	-0.7801708377591573	0.0	0.9684348794101617	-0.549653057766006	0.0	0.9799542828788395	-0.6572750763821278	0.0	0.9598371663038989	-0.757275896182947	0.0	0.9952072247846375	-0.7803356881896182	0.0	0.9914395025721919	-0.7784434909084865	0.0	0.9460059657508684	-0.7737610149783695	0.0	0.9962597047591688	-0.40903152584014385	0.0	1.0307618935875598	-0.34591706670014283	0.0	1.0380992588883782	-0.3823766132792021	0.0	0.9911360653222295	-0.41739185272010104	0.0	0.9408390410354592	-0.4444983524432453	0.0	0.8969360426904597	-0.471490108601955	0.0	0.9869546045840132	-0.4203678640811073	0.0	0.9482887185974778	-0.451642166112565	0.0	0.9060814850905441	-0.477607552336875	0.0
6	0.20126582278481012	0.9644575466001318	-0.5447950923911823	0.0	0.9622554215344383	-0.5440200598517474	0.0	0.9797731704834595	-0.6518227147468947	0.0	0.958278914684944	-0.7586891533685657	0.0	0.9967150085740042	-0.7844421927599963	0.0	0.9851688830599721	-0.7875099840650837	0.0	0.9471589583628092	-0.774533767537964	0.0	0.9662480603862801	-0.5432542592958219	0.0	0.9782395113720244	-0.6512612033615337	0.0	0.9602080860972015	-0.7519289192839484	0.0	0.9946837892650418	-0.7755609228303085	0.0	0.9905121219628303	-0.7739744614206134	0.0	0.9461367163890606	-0.7683605810401491	0.0	0.9962124898256405	-0.4038111541516268	0.0	1.0334179920767	-0.3405825297315416	0.0	1.0393141817627654	-0.37757561991340327	0.0	0.9922830374499915	-0.4108153458062973	0.0	0.938269081044121	-0.432461440890907	0.0	0.8899077381578298	-0.45100862294221555	0.0	0.9863177962330419	-0.4138059557237742	0.0	0.9471060532547687	-0.4393520197786859	0.0	0.9033600511765421	-0.46047522690437453	0.0
7	0.23481012658227846	0.9622073394928001	-0.5409325065247917	0.0	0.9598857685163529	-0.5398345080508279	0.0	0.9802126692593108	-0.6470287312764874	0.0	0.9586697754295257	-0.7538478199748617	0.0	0.9972567784048	-0.7808086838129021	0.0	0.9857456703693446	-0.7835433801982874	0.0	0.9471073955314351	-0.7696138347604964	0.0	0.963323900134527	-0.5389192268085471	0.0	0.9776597114798394	-0.6466132375116961	0.0	0.9605587172494271	-0.7477199965703016	0.0	0.9943172247327834	-0.7715925275245185	0.0	0.9897925963468582	-0.7701940646719498	0.0	0.9460074808123067	-0.7637837942388156	0.0	0.9961013720179169	-0.4009385839155328	0.0	1.0358555601960526	-0.33767535061246046	0.0	1.0401502829174067	-0.3750653904591973	0.0	0.9932874154697167	-0.4068397422687998	0.0	0.9360402803044189	-0.4246195000885356	0.0	0.884182219753381	-0.43682525499565905	0.0	0.9856021564937779	-0.40960986660219334	0.0	0.9458177107482277	-0.431007115078875	0.0	0.9021157515457647	-0.44927464522700666	0.0
8	0.2683544303797468	0.9595524999397826	-0.5393015339058006	0.0	0.9572362318863288	-0.5379658935148388	0.0	0.9823582906784771	-0.6437169163143158	0.0	0.95907268125223	-0.7498493567940246	0.0	0.9977341417546226	-0.7773660820745857	0.0	0.9863617184587424	-0.7798769285402974	0.0	0.9471541110715396	-0.7653980137947357	0.0	0.9596933530579526	-0.5369144043176023	0.0	0.9785865979913735	-0.64330182259199	0.0	0.9608836091850356	-0.7442822747920702	0.0	0.9941295420073306	-0.768065029003612	0.0	0.9893930273899898	-0.7666863616457706	0.0	0.945647515644712	-0.7598366890757559	0.0	0.9960000477118867	-0.40064025258651653	0.0	1.0378320493562465	-0.3374942392146458	0.0	1.0406463002665172	-0.37504419456995886	0.0	0.9941228816832817	-0.40593400284129355	0.0	0.9343976319565632	-0.42181366176997726	0.0	0.8799392733521982	-0.4310801491296331	0.0	0.9849311686875502	-0.4082057015780655	0.0	0.9439650021507285	-0.4275629071771518	0.0	0.9009658950259204	-0.44540004445860243	0.0
